<svg width="21" height="21" viewBox="0 0 21 21" fill="none" xmlns="http://www.w3.org/2000/svg">
<g clip-path="url(#clip0)">
<path d="M10.5 0.875C9.80381 0.875 9.13613 1.15156 8.64384 1.64384C8.15156 2.13613 7.875 2.80381 7.875 3.5V10.5C7.875 11.1962 8.15156 11.8639 8.64384 12.3562C9.13613 12.8484 9.80381 13.125 10.5 13.125C11.1962 13.125 11.8639 12.8484 12.3562 12.3562C12.8484 11.8639 13.125 11.1962 13.125 10.5V3.5C13.125 2.80381 12.8484 2.13613 12.3562 1.64384C11.8639 1.15156 11.1962 0.875 10.5 0.875V0.875Z" stroke="black" stroke-opacity="0.29" stroke-width="2" stroke-linecap="round" stroke-linejoin="round"/>
<path d="M16.625 8.75V10.5C16.625 12.1245 15.9797 13.6824 14.831 14.831C13.6824 15.9797 12.1245 16.625 10.5 16.625C8.87555 16.625 7.31763 15.9797 6.16897 14.831C5.02031 13.6824 4.375 12.1245 4.375 10.5V8.75" stroke="black" stroke-opacity="0.29" stroke-width="2" stroke-linecap="round" stroke-linejoin="round"/>
<path d="M10.5 16.625V20.125" stroke="black" stroke-opacity="0.29" stroke-width="2" stroke-linecap="round" stroke-linejoin="round"/>
<path d="M7 20.125H14" stroke="black" stroke-opacity="0.29" stroke-width="2" stroke-linecap="round" stroke-linejoin="round"/>
</g>
<defs>
<clipPath id="clip0">
<rect width="21" height="21" fill="white"/>
</clipPath>
</defs>
</svg>
